# Blender v2.76 (sub 0) OBJ File: 'elevator.blend'
# www.blender.org
mtllib elevator.mtl
o Cube
v 4.000000 -5.000000 -4.000000
v 4.000000 -5.000000 4.000000
v -4.000000 -5.000000 3.999999
v -3.999999 -5.000000 -4.000001
v 4.000002 5.000000 -3.999998
v 3.999997 5.000000 4.000002
v -4.000001 5.000000 3.999999
v -4.000000 5.000000 -4.000000
vt 0.000000 0.666667
vt 0.333333 0.666667
vt 0.333333 1.000000
vt 0.000000 1.000000
vt 0.666667 0.333333
vt 0.666667 0.666667
vt 0.333333 0.333333
vt 0.333333 0.000000
vt 0.666667 0.000000
vt 1.000000 0.333333
vt 1.000000 0.000000
vt 0.000000 0.333333
vt 0.000000 0.000000
vn 0.000000 -1.000000 0.000000
vn 0.000000 1.000000 -0.000000
vn 1.000000 0.000000 0.000000
vn -1.000000 -0.000000 -0.000000
vn 0.000000 0.000000 -1.000000
vn -0.000000 -0.000000 1.000000
usemtl Material
s off
f 1/1/1 2/2/1 3/3/1 4/4/1
f 5/5/2 8/6/2 7/2/2 6/7/2
f 1/5/3 5/7/3 6/8/3 2/9/3
f 3/10/4 7/5/4 8/9/4 4/11/4
f 5/12/5 1/7/5 4/2/5 8/1/5
usemtl Material_elevator_copy.png
f 2/12/6 6/13/6 7/8/6 3/7/6
